<mxfile host="65bd71144e">
    <diagram id="yldvcxovfB1Y7WW8462c" name="페이지-1">
        <mxGraphModel dx="866" dy="1187" grid="1" gridSize="10" guides="1" tooltips="1" connect="1" arrows="1" fold="1" page="1" pageScale="1" pageWidth="1654" pageHeight="2336" math="0" shadow="0">
            <root>
                <mxCell id="0"/>
                <mxCell id="1" parent="0"/>
                <mxCell id="8" value="" style="edgeStyle=none;html=1;entryX=0.5;entryY=0;entryDx=0;entryDy=0;" parent="1" source="2" edge="1">
                    <mxGeometry relative="1" as="geometry">
                        <mxPoint x="470" y="220" as="targetPoint"/>
                    </mxGeometry>
                </mxCell>
                <mxCell id="2" value="Fault Handler&lt;br&gt;@ Event1" style="rounded=1;whiteSpace=wrap;html=1;" parent="1" vertex="1">
                    <mxGeometry x="410" y="110" width="120" height="60" as="geometry"/>
                </mxCell>
                <mxCell id="11" value="NO" style="edgeStyle=elbowEdgeStyle;elbow=horizontal;endArrow=classic;html=1;curved=0;rounded=0;endSize=8;startSize=8;entryX=0.519;entryY=-0.019;entryDx=0;entryDy=0;entryPerimeter=0;exitX=1;exitY=0.5;exitDx=0;exitDy=0;" parent="1" source="89" target="90" edge="1">
                    <mxGeometry width="50" height="50" relative="1" as="geometry">
                        <mxPoint x="690" y="400" as="sourcePoint"/>
                        <mxPoint x="730" y="470" as="targetPoint"/>
                        <Array as="points">
                            <mxPoint x="713" y="410"/>
                            <mxPoint x="750" y="470"/>
                        </Array>
                    </mxGeometry>
                </mxCell>
                <mxCell id="91" value="" style="edgeStyle=none;html=1;" parent="1" source="74" target="89" edge="1">
                    <mxGeometry relative="1" as="geometry"/>
                </mxCell>
                <mxCell id="74" value="Hex2Bit" style="rounded=0;whiteSpace=wrap;html=1;" parent="1" vertex="1">
                    <mxGeometry x="410" y="220" width="120" height="70" as="geometry"/>
                </mxCell>
                <mxCell id="89" value="Fault Occured???" style="rhombus;whiteSpace=wrap;html=1;" parent="1" vertex="1">
                    <mxGeometry x="367.5" y="320" width="205" height="100" as="geometry"/>
                </mxCell>
                <mxCell id="90" value="SYS_FAULT pin Output : High" style="rounded=0;whiteSpace=wrap;html=1;" parent="1" vertex="1">
                    <mxGeometry x="620" y="440" width="180" height="40" as="geometry"/>
                </mxCell>
                <mxCell id="92" value="YES" style="edgeStyle=none;html=1;entryX=0.5;entryY=0;entryDx=0;entryDy=0;" parent="1" target="93" edge="1">
                    <mxGeometry relative="1" as="geometry">
                        <mxPoint x="469.65999999999974" y="419.9999999999998" as="sourcePoint"/>
                        <mxPoint x="469.65999999999974" y="462" as="targetPoint"/>
                    </mxGeometry>
                </mxCell>
                <mxCell id="93" value="RAM -&amp;gt; Int Flash&lt;br&gt;Fault" style="rounded=0;whiteSpace=wrap;html=1;" parent="1" vertex="1">
                    <mxGeometry x="410" y="470" width="120" height="40" as="geometry"/>
                </mxCell>
                <mxCell id="103" value="" style="edgeStyle=none;html=1;" parent="1" source="94" target="99" edge="1">
                    <mxGeometry relative="1" as="geometry"/>
                </mxCell>
                <mxCell id="94" value="SYS_FAULT pin Output : Low" style="rounded=0;whiteSpace=wrap;html=1;" parent="1" vertex="1">
                    <mxGeometry x="380" y="560" width="180" height="40" as="geometry"/>
                </mxCell>
                <mxCell id="95" value="&lt;br&gt;" style="edgeStyle=none;html=1;" parent="1" edge="1">
                    <mxGeometry relative="1" as="geometry">
                        <mxPoint x="469.8199999999999" y="509.9999999999998" as="sourcePoint"/>
                        <mxPoint x="470" y="560" as="targetPoint"/>
                    </mxGeometry>
                </mxCell>
                <mxCell id="96" value="모든 bit = 0b" style="text;strokeColor=none;align=center;fillColor=none;html=1;verticalAlign=middle;whiteSpace=wrap;rounded=0;" parent="1" vertex="1">
                    <mxGeometry x="650" y="330" width="80" height="30" as="geometry"/>
                </mxCell>
                <mxCell id="98" value="RAM -&amp;gt; Ext Flash&lt;br&gt;Fault Log" style="rounded=0;whiteSpace=wrap;html=1;" parent="1" vertex="1">
                    <mxGeometry x="180" y="730" width="120" height="70" as="geometry"/>
                </mxCell>
                <mxCell id="101" value="동일" style="edgeStyle=none;html=1;" parent="1" source="99" target="100" edge="1">
                    <mxGeometry relative="1" as="geometry"/>
                </mxCell>
                <mxCell id="99" value="Fault 변수&lt;br&gt;과거 &amp;amp; 현재 비교" style="rhombus;whiteSpace=wrap;html=1;" parent="1" vertex="1">
                    <mxGeometry x="367.5" y="640" width="205" height="100" as="geometry"/>
                </mxCell>
                <mxCell id="100" value="End" style="rounded=1;whiteSpace=wrap;html=1;" parent="1" vertex="1">
                    <mxGeometry x="410" y="812" width="120" height="60" as="geometry"/>
                </mxCell>
                <mxCell id="102" value="&lt;br&gt;" style="edgeStyle=elbowEdgeStyle;elbow=horizontal;endArrow=classic;html=1;curved=0;rounded=0;endSize=8;startSize=8;entryX=1.01;entryY=0.433;entryDx=0;entryDy=0;entryPerimeter=0;exitX=0.5;exitY=1;exitDx=0;exitDy=0;" parent="1" source="90" target="100" edge="1">
                    <mxGeometry width="50" height="50" relative="1" as="geometry">
                        <mxPoint x="690" y="520" as="sourcePoint"/>
                        <mxPoint x="870" y="720" as="targetPoint"/>
                        <Array as="points">
                            <mxPoint x="710" y="570"/>
                            <mxPoint x="760" y="690"/>
                            <mxPoint x="710" y="582"/>
                            <mxPoint x="710" y="592"/>
                            <mxPoint x="660" y="572"/>
                            <mxPoint x="1215" y="577"/>
                        </Array>
                    </mxGeometry>
                </mxCell>
                <mxCell id="104" value="Fault Update" style="edgeStyle=elbowEdgeStyle;elbow=horizontal;endArrow=classic;html=1;curved=0;rounded=0;endSize=8;startSize=8;entryX=0.5;entryY=0;entryDx=0;entryDy=0;exitX=0;exitY=0.5;exitDx=0;exitDy=0;" parent="1" source="99" target="98" edge="1">
                    <mxGeometry width="50" height="50" relative="1" as="geometry">
                        <mxPoint x="178.79999999999995" y="511.01" as="sourcePoint"/>
                        <mxPoint y="868.9900000000002" as="targetPoint"/>
                        <Array as="points">
                            <mxPoint x="240" y="710"/>
                            <mxPoint x="228.79999999999995" y="721.01"/>
                            <mxPoint x="178.79999999999995" y="613.01"/>
                            <mxPoint x="178.79999999999995" y="623.01"/>
                            <mxPoint x="128.79999999999995" y="603.01"/>
                            <mxPoint x="683.8" y="608.01"/>
                        </Array>
                    </mxGeometry>
                </mxCell>
                <mxCell id="105" value="&lt;br&gt;" style="edgeStyle=elbowEdgeStyle;elbow=horizontal;endArrow=classic;html=1;curved=0;rounded=0;endSize=8;startSize=8;entryX=-0.023;entryY=0.501;entryDx=0;entryDy=0;exitX=0.5;exitY=1;exitDx=0;exitDy=0;entryPerimeter=0;" parent="1" source="98" target="100" edge="1">
                    <mxGeometry width="50" height="50" relative="1" as="geometry">
                        <mxPoint x="287.5" y="840" as="sourcePoint"/>
                        <mxPoint x="200" y="900" as="targetPoint"/>
                        <Array as="points">
                            <mxPoint x="240" y="830"/>
                            <mxPoint x="148.79999999999995" y="871.01"/>
                            <mxPoint x="98.79999999999995" y="763.01"/>
                            <mxPoint x="98.79999999999995" y="773.01"/>
                            <mxPoint x="48.799999999999955" y="753.01"/>
                            <mxPoint x="603.8" y="758.01"/>
                        </Array>
                    </mxGeometry>
                </mxCell>
                <mxCell id="106" value="Host &lt;br&gt;Fault Read&lt;br&gt;Flag Write" style="text;strokeColor=none;align=center;fillColor=none;html=1;verticalAlign=middle;whiteSpace=wrap;rounded=0;fontStyle=1;fontColor=#CC0000;" parent="1" vertex="1">
                    <mxGeometry x="210" y="610" width="150" height="30" as="geometry"/>
                </mxCell>
                <mxCell id="107" value="" style="shape=flexArrow;endArrow=classic;html=1;fontColor=#CC0000;exitX=1;exitY=0.5;exitDx=0;exitDy=0;" parent="1" source="106" edge="1">
                    <mxGeometry width="50" height="50" relative="1" as="geometry">
                        <mxPoint x="315" y="605" as="sourcePoint"/>
                        <mxPoint x="440" y="625" as="targetPoint"/>
                    </mxGeometry>
                </mxCell>
                <mxCell id="108" value="" style="endArrow=none;html=1;" parent="1" edge="1">
                    <mxGeometry width="50" height="50" relative="1" as="geometry">
                        <mxPoint x="717" y="139.63" as="sourcePoint"/>
                        <mxPoint x="827" y="139.63" as="targetPoint"/>
                    </mxGeometry>
                </mxCell>
                <mxCell id="109" value="" style="endArrow=none;html=1;" parent="1" edge="1">
                    <mxGeometry width="50" height="50" relative="1" as="geometry">
                        <mxPoint x="827" y="220" as="sourcePoint"/>
                        <mxPoint x="937" y="220" as="targetPoint"/>
                    </mxGeometry>
                </mxCell>
                <mxCell id="110" value="" style="endArrow=none;html=1;" parent="1" edge="1">
                    <mxGeometry width="50" height="50" relative="1" as="geometry">
                        <mxPoint x="937" y="139.63" as="sourcePoint"/>
                        <mxPoint x="1047" y="139.63" as="targetPoint"/>
                    </mxGeometry>
                </mxCell>
                <mxCell id="111" value="" style="endArrow=none;html=1;" parent="1" edge="1">
                    <mxGeometry width="50" height="50" relative="1" as="geometry">
                        <mxPoint x="827" y="220" as="sourcePoint"/>
                        <mxPoint x="827" y="140" as="targetPoint"/>
                    </mxGeometry>
                </mxCell>
                <mxCell id="112" value="" style="endArrow=none;html=1;" parent="1" edge="1">
                    <mxGeometry width="50" height="50" relative="1" as="geometry">
                        <mxPoint x="937" y="220" as="sourcePoint"/>
                        <mxPoint x="937" y="140" as="targetPoint"/>
                    </mxGeometry>
                </mxCell>
                <mxCell id="113" value="Low" style="text;html=1;align=center;verticalAlign=middle;resizable=0;points=[];autosize=1;strokeColor=none;fillColor=none;" parent="1" vertex="1">
                    <mxGeometry x="667" y="203" width="50" height="30" as="geometry"/>
                </mxCell>
                <mxCell id="114" value="High" style="text;html=1;align=center;verticalAlign=middle;resizable=0;points=[];autosize=1;strokeColor=none;fillColor=none;" parent="1" vertex="1">
                    <mxGeometry x="667" y="120" width="50" height="30" as="geometry"/>
                </mxCell>
                <mxCell id="115" value="Fault" style="text;html=1;align=center;verticalAlign=middle;resizable=0;points=[];autosize=1;strokeColor=none;fillColor=none;" parent="1" vertex="1">
                    <mxGeometry x="855" y="170" width="50" height="30" as="geometry"/>
                </mxCell>
                <mxCell id="116" value="idle" style="text;html=1;align=center;verticalAlign=middle;resizable=0;points=[];autosize=1;strokeColor=none;fillColor=none;" parent="1" vertex="1">
                    <mxGeometry x="750" y="170" width="40" height="30" as="geometry"/>
                </mxCell>
                <mxCell id="117" value="idle" style="text;html=1;align=center;verticalAlign=middle;resizable=0;points=[];autosize=1;strokeColor=none;fillColor=none;" parent="1" vertex="1">
                    <mxGeometry x="980" y="173" width="40" height="30" as="geometry"/>
                </mxCell>
                <mxCell id="118" value="SYS_FAULT pin (GPIO59)&lt;br&gt;[Indigo -&amp;gt; 제어기]" style="text;html=1;align=center;verticalAlign=middle;resizable=0;points=[];autosize=1;strokeColor=none;fillColor=none;" parent="1" vertex="1">
                    <mxGeometry x="610" y="80" width="160" height="40" as="geometry"/>
                </mxCell>
                <mxCell id="119" value="Fault 값이 바뀔 때마다 Ext Flash에 저장해야 함." style="text;html=1;align=center;verticalAlign=middle;resizable=0;points=[];autosize=1;strokeColor=none;fillColor=none;" vertex="1" parent="1">
                    <mxGeometry x="100" y="138" width="280" height="30" as="geometry"/>
                </mxCell>
            </root>
        </mxGraphModel>
    </diagram>
</mxfile>